<mxfile host="app.diagrams.net" modified="2023-12-04T15:45:25.474Z" agent="Mozilla/5.0 (Macintosh; Intel Mac OS X 10_15_7) AppleWebKit/537.36 (KHTML, like Gecko) Chrome/119.0.0.0 Safari/537.36" etag="fUmU1tdaKn92bJKNFop5" version="22.1.5" type="github">
  <diagram id="kgpKYQtTHZ0yAKxKKP6v" name="Page-1">
    <mxGraphModel dx="2793" dy="1102" grid="1" gridSize="10" guides="1" tooltips="1" connect="1" arrows="1" fold="1" page="1" pageScale="1" pageWidth="850" pageHeight="1100" math="0" shadow="0">
      <root>
        <mxCell id="0" />
        <mxCell id="1" parent="0" />
        <mxCell id="PvGmognT5EnWfmdFGkZc-1" value="Eng Home Screen" style="html=1;dashed=0;whiteSpace=wrap;shape=mxgraph.dfd.start" vertex="1" parent="1">
          <mxGeometry x="135" y="30" width="130" height="30" as="geometry" />
        </mxCell>
        <mxCell id="PvGmognT5EnWfmdFGkZc-11" value="" style="edgeStyle=orthogonalEdgeStyle;rounded=0;orthogonalLoop=1;jettySize=auto;html=1;" edge="1" parent="1" source="PvGmognT5EnWfmdFGkZc-8" target="PvGmognT5EnWfmdFGkZc-10">
          <mxGeometry relative="1" as="geometry" />
        </mxCell>
        <mxCell id="PvGmognT5EnWfmdFGkZc-12" value="yes" style="edgeLabel;html=1;align=center;verticalAlign=middle;resizable=0;points=[];" vertex="1" connectable="0" parent="PvGmognT5EnWfmdFGkZc-11">
          <mxGeometry x="-0.1251" y="-1" relative="1" as="geometry">
            <mxPoint as="offset" />
          </mxGeometry>
        </mxCell>
        <mxCell id="PvGmognT5EnWfmdFGkZc-34" style="edgeStyle=orthogonalEdgeStyle;rounded=0;orthogonalLoop=1;jettySize=auto;html=1;entryX=0.5;entryY=0;entryDx=0;entryDy=0;" edge="1" parent="1" source="PvGmognT5EnWfmdFGkZc-8" target="PvGmognT5EnWfmdFGkZc-33">
          <mxGeometry relative="1" as="geometry" />
        </mxCell>
        <mxCell id="PvGmognT5EnWfmdFGkZc-35" value="No" style="edgeLabel;html=1;align=center;verticalAlign=middle;resizable=0;points=[];" vertex="1" connectable="0" parent="PvGmognT5EnWfmdFGkZc-34">
          <mxGeometry x="-0.2983" y="2" relative="1" as="geometry">
            <mxPoint as="offset" />
          </mxGeometry>
        </mxCell>
        <mxCell id="PvGmognT5EnWfmdFGkZc-8" value="vehicle&lt;br&gt;assigned?" style="strokeWidth=2;html=1;shape=mxgraph.flowchart.decision;whiteSpace=wrap;" vertex="1" parent="1">
          <mxGeometry x="25" y="400" width="90" height="100" as="geometry" />
        </mxCell>
        <mxCell id="PvGmognT5EnWfmdFGkZc-10" value="vehicle assignment&lt;br&gt;Screen" style="whiteSpace=wrap;html=1;strokeWidth=2;" vertex="1" parent="1">
          <mxGeometry x="150" y="520" width="120" height="60" as="geometry" />
        </mxCell>
        <mxCell id="PvGmognT5EnWfmdFGkZc-13" value="cont. without&lt;br&gt;vehicle check" style="whiteSpace=wrap;html=1;strokeWidth=2;" vertex="1" parent="1">
          <mxGeometry x="10" y="780" width="120" height="60" as="geometry" />
        </mxCell>
        <mxCell id="PvGmognT5EnWfmdFGkZc-27" style="edgeStyle=orthogonalEdgeStyle;rounded=0;orthogonalLoop=1;jettySize=auto;html=1;entryX=0.5;entryY=0;entryDx=0;entryDy=0;" edge="1" parent="1" source="PvGmognT5EnWfmdFGkZc-22" target="PvGmognT5EnWfmdFGkZc-24">
          <mxGeometry relative="1" as="geometry" />
        </mxCell>
        <mxCell id="PvGmognT5EnWfmdFGkZc-28" style="edgeStyle=orthogonalEdgeStyle;rounded=0;orthogonalLoop=1;jettySize=auto;html=1;entryX=0.5;entryY=0;entryDx=0;entryDy=0;" edge="1" parent="1" source="PvGmognT5EnWfmdFGkZc-22" target="PvGmognT5EnWfmdFGkZc-23">
          <mxGeometry relative="1" as="geometry" />
        </mxCell>
        <mxCell id="PvGmognT5EnWfmdFGkZc-29" style="edgeStyle=orthogonalEdgeStyle;rounded=0;orthogonalLoop=1;jettySize=auto;html=1;entryX=0.5;entryY=0;entryDx=0;entryDy=0;" edge="1" parent="1" source="PvGmognT5EnWfmdFGkZc-22" target="PvGmognT5EnWfmdFGkZc-25">
          <mxGeometry relative="1" as="geometry" />
        </mxCell>
        <mxCell id="PvGmognT5EnWfmdFGkZc-22" value="user clicks" style="strokeWidth=2;html=1;shape=mxgraph.flowchart.decision;whiteSpace=wrap;" vertex="1" parent="1">
          <mxGeometry x="155" y="100" width="90" height="100" as="geometry" />
        </mxCell>
        <mxCell id="PvGmognT5EnWfmdFGkZc-23" value="start shift" style="rounded=1;whiteSpace=wrap;html=1;absoluteArcSize=1;arcSize=14;strokeWidth=2;" vertex="1" parent="1">
          <mxGeometry x="20" y="270" width="100" height="60" as="geometry" />
        </mxCell>
        <mxCell id="PvGmognT5EnWfmdFGkZc-24" value="today jobs" style="rounded=1;whiteSpace=wrap;html=1;absoluteArcSize=1;arcSize=14;strokeWidth=2;" vertex="1" parent="1">
          <mxGeometry x="150" y="270" width="100" height="60" as="geometry" />
        </mxCell>
        <mxCell id="PvGmognT5EnWfmdFGkZc-25" value="first job?" style="rounded=1;whiteSpace=wrap;html=1;absoluteArcSize=1;arcSize=14;strokeWidth=2;" vertex="1" parent="1">
          <mxGeometry x="270" y="270" width="100" height="60" as="geometry" />
        </mxCell>
        <mxCell id="PvGmognT5EnWfmdFGkZc-30" style="edgeStyle=orthogonalEdgeStyle;rounded=0;orthogonalLoop=1;jettySize=auto;html=1;entryX=0.5;entryY=0;entryDx=0;entryDy=0;entryPerimeter=0;" edge="1" parent="1" source="PvGmognT5EnWfmdFGkZc-1" target="PvGmognT5EnWfmdFGkZc-22">
          <mxGeometry relative="1" as="geometry" />
        </mxCell>
        <mxCell id="PvGmognT5EnWfmdFGkZc-31" style="edgeStyle=orthogonalEdgeStyle;rounded=0;orthogonalLoop=1;jettySize=auto;html=1;entryX=0.5;entryY=0;entryDx=0;entryDy=0;entryPerimeter=0;" edge="1" parent="1" source="PvGmognT5EnWfmdFGkZc-23" target="PvGmognT5EnWfmdFGkZc-8">
          <mxGeometry relative="1" as="geometry" />
        </mxCell>
        <mxCell id="PvGmognT5EnWfmdFGkZc-39" style="edgeStyle=orthogonalEdgeStyle;rounded=0;orthogonalLoop=1;jettySize=auto;html=1;entryX=0.5;entryY=0;entryDx=0;entryDy=0;" edge="1" parent="1" source="PvGmognT5EnWfmdFGkZc-32" target="PvGmognT5EnWfmdFGkZc-13">
          <mxGeometry relative="1" as="geometry">
            <Array as="points">
              <mxPoint x="80" y="670" />
              <mxPoint x="80" y="780" />
            </Array>
          </mxGeometry>
        </mxCell>
        <mxCell id="PvGmognT5EnWfmdFGkZc-42" style="edgeStyle=orthogonalEdgeStyle;rounded=0;orthogonalLoop=1;jettySize=auto;html=1;entryX=0.5;entryY=0;entryDx=0;entryDy=0;" edge="1" parent="1" source="PvGmognT5EnWfmdFGkZc-32" target="PvGmognT5EnWfmdFGkZc-41">
          <mxGeometry relative="1" as="geometry" />
        </mxCell>
        <mxCell id="PvGmognT5EnWfmdFGkZc-32" value="user clicks" style="strokeWidth=2;html=1;shape=mxgraph.flowchart.decision;whiteSpace=wrap;" vertex="1" parent="1">
          <mxGeometry x="165" y="620" width="90" height="100" as="geometry" />
        </mxCell>
        <mxCell id="PvGmognT5EnWfmdFGkZc-33" value="vehicle assignment&lt;br&gt;Screen" style="whiteSpace=wrap;html=1;strokeWidth=2;" vertex="1" parent="1">
          <mxGeometry x="-130" y="520" width="120" height="60" as="geometry" />
        </mxCell>
        <mxCell id="PvGmognT5EnWfmdFGkZc-36" style="edgeStyle=orthogonalEdgeStyle;rounded=0;orthogonalLoop=1;jettySize=auto;html=1;entryX=0.5;entryY=0;entryDx=0;entryDy=0;entryPerimeter=0;" edge="1" parent="1" source="PvGmognT5EnWfmdFGkZc-10" target="PvGmognT5EnWfmdFGkZc-32">
          <mxGeometry relative="1" as="geometry" />
        </mxCell>
        <mxCell id="PvGmognT5EnWfmdFGkZc-40" style="edgeStyle=orthogonalEdgeStyle;rounded=0;orthogonalLoop=1;jettySize=auto;html=1;" edge="1" parent="1" source="PvGmognT5EnWfmdFGkZc-37">
          <mxGeometry relative="1" as="geometry">
            <mxPoint x="80" y="780" as="targetPoint" />
            <Array as="points">
              <mxPoint x="70" y="670" />
              <mxPoint x="70" y="780" />
            </Array>
          </mxGeometry>
        </mxCell>
        <mxCell id="PvGmognT5EnWfmdFGkZc-44" style="edgeStyle=orthogonalEdgeStyle;rounded=0;orthogonalLoop=1;jettySize=auto;html=1;entryX=0.5;entryY=0;entryDx=0;entryDy=0;" edge="1" parent="1" source="PvGmognT5EnWfmdFGkZc-37" target="PvGmognT5EnWfmdFGkZc-43">
          <mxGeometry relative="1" as="geometry" />
        </mxCell>
        <mxCell id="PvGmognT5EnWfmdFGkZc-37" value="user clicks" style="strokeWidth=2;html=1;shape=mxgraph.flowchart.decision;whiteSpace=wrap;" vertex="1" parent="1">
          <mxGeometry x="-115" y="620" width="90" height="100" as="geometry" />
        </mxCell>
        <mxCell id="PvGmognT5EnWfmdFGkZc-38" style="edgeStyle=orthogonalEdgeStyle;rounded=0;orthogonalLoop=1;jettySize=auto;html=1;entryX=0.5;entryY=0;entryDx=0;entryDy=0;entryPerimeter=0;" edge="1" parent="1" source="PvGmognT5EnWfmdFGkZc-33" target="PvGmognT5EnWfmdFGkZc-37">
          <mxGeometry relative="1" as="geometry" />
        </mxCell>
        <mxCell id="PvGmognT5EnWfmdFGkZc-41" value="cont. without&lt;br&gt;vehicle check" style="whiteSpace=wrap;html=1;strokeWidth=2;" vertex="1" parent="1">
          <mxGeometry x="150" y="780" width="120" height="60" as="geometry" />
        </mxCell>
        <mxCell id="PvGmognT5EnWfmdFGkZc-43" value="check" style="whiteSpace=wrap;html=1;strokeWidth=2;" vertex="1" parent="1">
          <mxGeometry x="-130" y="780" width="120" height="60" as="geometry" />
        </mxCell>
      </root>
    </mxGraphModel>
  </diagram>
</mxfile>
